<?xml version="1.0" encoding="UTF-8"?>
<svg id="Layer_1" xmlns="http://www.w3.org/2000/svg" version="1.1" xmlns:xlink="http://www.w3.org/1999/xlink" viewBox="0 0 961 538">
  <!-- Generator: Adobe Illustrator 29.8.4, SVG Export Plug-In . SVG Version: 2.1.1 Build 6)  -->
  <defs>
    <style>
      .st0 {
        fill: #fff;
      }

      .st1 {
        fill: blue;
      }

      .st2 {
        fill: none;
      }

      .st3 {
        clip-path: url(#clippath);
      }
    </style>
    <clipPath id="clippath">
      <path class="st2" d="M39.08,42.39v372.69h699.75V42.39H39.08ZM83.08,336.14l-.32.72c-3.26-3.17-6.25-6.85-8.95-11.04-10.77-16.7-16.28-37.3-16.39-61.2h3.3c.16,22.27,5.32,41.28,15.35,56.48,2.26,3.42,4.6,6.45,7.01,9.12v5.93ZM165.08,335.76c-.3.22-.61.45-.91.66-13.58,9.5-27.73,14.52-42.09,14.95v-8.51c12.88-2.95,27.22-10.76,42.82-23.34l.18.44v15.8ZM211.02,283.25l-.31-.22-.43-.82v-6.07h-3.53l-.78-.62c5.56-7.89,10.71-16.22,15.39-24.98.47-.87.9-1.75,1.36-2.62l.43.26.48.85v6.42h1.85l.52.39c-4.29,9.17-9.28,18.31-14.96,27.41ZM280.3,276.13v3.74c-.96-.15-1.94-.23-2.94-.23-3.76,0-5.52,1.97-5.52,6.19s2.63,6.74,7.99,7.39l-.02.63-1,.97h-6.47c-.17-.18-.34-.35-.49-.54-2.19-2.73-3.3-5.75-3.3-9,0-7,3.36-10.7,9.7-10.7.92,0,1.85.09,2.79.26l-.74,1.29ZM355.93,239.35c-.47,1.01-.94,2.03-1.44,3.03-8.34,16.84-19.89,30.68-34.43,41.38l-.14-.34v-12.52c6.78-9.68,13.81-22.97,21.03-39.82.88-2.05,1.73-4.09,2.56-6.13l.54.27.55.89v10.65h10.34l1,1v1.6ZM518.54,208.62c-1.02,1.4-2.06,2.82-3.14,4.26-6.42,8.59-13.49,17.06-21.17,25.41l-.03-.03-.34-.75v-5.01c4.97-5.48,9.53-10.84,13.63-16.05,3.71-4.71,7.18-9.45,10.4-14.18l.24.18.4.8v5.36ZM518.54,145.15c-3.21,2.7-6.63,6.07-10.25,10.14-5.19,5.83-11.9,14.99-20.07,27.39h-4.69l-1-1v-5.37c6.66-8.75,13.27-16.48,19.73-23.06,6.41-6.53,11.81-11.39,16.13-14.54l.15.37v6.07Z"/>
    </clipPath>
  </defs>
  <g>
    <g>
      <path class="st1" d="M102.58,44.39h82v36.87h-20.5v294.95h-20.5v36.87H61.58v-36.87h-20.5v-110.61h41v110.61h41V81.26h-20.5v-36.87Z"/>
      <path class="st1" d="M267.96,293.83h-11.34v-37.39h-11.34v18.69h-11.34v18.69h-22.67v-18.69h-11.34v-74.77h-11.34v-18.69h11.34v-18.69h11.34v-18.69h11.34v112.16h22.67v-18.69h11.34v-74.77h11.34v-18.69h11.34v112.16h11.34v18.69h-11.34v18.69h-11.34Z"/>
      <path class="st1" d="M332.26,349.91h-11.34v-130.85h-11.34v-18.69h11.34v-18.69h11.34v-18.69h11.34v74.77h11.34v18.69h11.34v18.69h11.34v18.69h-22.67v-18.69h-11.34v37.39h11.34v18.69h-11.34v18.69h-11.34ZM377.6,275.14v-74.77h-11.34v-18.69h-11.34v-18.69h-11.34v-18.69h34.01v18.69h11.34v18.69h11.34v74.77h-11.34v18.69h-11.34Z"/>
      <path class="st1" d="M441.9,293.83h-11.34v-74.77h-11.34v-18.69h11.34v-18.69h11.34v-18.69h11.34v93.47h11.34v18.69h-11.34v18.69h-11.34ZM430.57,144.28v-37.39h11.34v-18.69h11.34v37.39h-11.34v18.69h-11.34Z"/>
      <path class="st1" d="M506.2,293.83h-11.34v-112.16h-11.34v-18.69h11.34v-18.69h-11.34v-18.69h11.34v-18.69h11.34v-18.69h11.34v74.77h22.67v18.69h-22.67v74.77h11.34v18.69h-11.34v18.69h-11.34ZM528.88,256.44v-18.69h11.34v18.69h-11.34Z"/>
      <path class="st1" d="M615.85,275.14h11.34v18.69h-56.68v-18.69h-11.34v-93.47h11.34v-18.69h11.34v74.77h11.34v37.39h22.67ZM615.85,200.36v-18.69h-11.34v-18.69h-22.67v-18.69h45.34v18.69h11.34v18.69h-11.34v18.69h-11.34ZM593.17,237.75v-18.69h11.34v18.69h-11.34ZM604.51,219.06v-18.69h11.34v18.69h-11.34ZM627.18,275.14v-18.69h11.34v18.69h-11.34Z"/>
      <path class="st1" d="M680.15,293.83h-11.34v-93.47h-11.34v-18.69h11.34v-18.69h11.34v-18.69h11.34v37.39h11.34v18.69h-11.34v56.08h11.34v18.69h-11.34v18.69h-11.34ZM725.49,200.36h-11.34v-18.69h-11.34v-18.69h11.34v-18.69h11.34v18.69h11.34v37.39h-11.34Z"/>
    </g>
    <g>
      <g>
        <path class="st0" d="M73.56,529.38c-17.34,0-31.32-5.72-41.56-17-10.22-11.26-15.41-26.35-15.41-44.84,0-7.37,1.25-13.81,3.71-19.16,2.5-5.45,5.6-8.21,9.21-8.21,3.12,0,5.76,1.98,7.85,5.88,2.05,3.83,3.09,8.91,3.09,15.1,0,5.72-1.01,10.73-2.99,14.9-2.03,4.27-4.46,6.43-7.23,6.43-2.45,0-4.81-1.98-7.19-6.05-.45.79-.68,1.74-.68,2.84,0,10.98,4.43,21.36,13.15,30.83,8.72,9.46,21.82,14.26,38.94,14.26,19.63,0,38.05-7.39,54.73-21.95,16.72-14.59,32.66-35.85,47.37-63.18,14.73-27.35,35.75-71.84,62.49-132.23l17.37-39.11c30.27-68.11,63.2-127.53,97.87-176.59-8.42-20.14-22.09-37.24-40.63-50.84-18.59-13.63-40.33-20.54-64.6-20.54-31.88,0-62.86,11.52-92.09,34.24-29.24,22.74-52.91,53.98-70.36,92.86-17.45,38.89-26.29,78.09-26.29,116.5,0,22.82,5.19,42.26,15.43,57.77,10.2,15.46,22,23.3,35.06,23.3,16.42,0,35.68-9.14,57.24-27.17,21.59-18.06,39.63-40.5,53.63-66.72,13.99-26.19,21.09-52.88,21.09-79.3,0-14.11-3.38-25.96-10.05-35.24-6.64-9.24-14.52-13.92-23.42-13.92-19.36,0-40.35,15.28-62.38,45.42-22.08,30.21-40.44,69.82-54.56,117.73l-.2.69-2-2.48.05-.19c13.2-45.77,31.38-85.19,54.05-117.17,22.71-32.05,44.47-48.3,64.69-48.3,9.63,0,18.2,5.2,25.47,15.46,7.23,10.22,10.9,23.1,10.9,38.29,0,39.98-13.48,80.27-40.05,119.76-26.61,39.54-55.27,59.58-85.2,59.58-19.61,0-35.06-8.55-45.94-25.42-10.84-16.81-16.34-37.58-16.34-61.73,0-41.59,9.5-83.1,28.22-123.38,18.73-40.3,43.25-71.52,72.88-92.79,29.64-21.29,59.76-32.08,89.53-32.08,22.52,0,43.54,6.12,62.48,18.19,18.8,11.97,34.17,30.48,45.69,55.02,11.26-15.7,25.9-33.6,43.52-53.19l.51-.56.71,3.77-.13.14c-15.63,17.16-29.98,35.03-42.65,53.13,8.52,21.95,12.84,45.51,12.84,70.04,0,30.05-5.8,56.98-17.23,80.05-11.39,22.98-28.74,40.39-51.57,51.76,7.03,12.59,10.6,33.21,10.6,61.3,0,29.51-4.89,58.12-14.53,85.04-9.65,26.94-22.52,47.55-38.25,61.26-15.75,13.73-30.18,20.7-42.87,20.7-4.88,0-9.02-2.51-12.31-7.45-3.25-4.89-4.9-10.88-4.9-17.8,0-21.05,9.09-45.45,27.01-72.51,17.94-27.07,35.64-42.84,52.61-46.87l.42-.1.24,2.87-.29.09c-17.94,5.65-35.51,21.84-52.24,48.11-16.74,26.29-25.22,49.53-25.22,69.07,0,6.78,1.36,11.91,4.03,15.26,2.66,3.33,5.63,5.02,8.83,5.02,11.26,0,24.6-10.6,39.65-31.51,15.1-20.98,27.83-47.04,37.85-77.47,10.01-30.42,15.09-55.41,15.09-74.25,0-17.02-3-30.28-8.92-39.42-6,1.84-11.85,2.78-17.39,2.78-4.4,0-7.72-1.36-9.87-4.05-2.13-2.66-3.22-5.61-3.22-8.76,0-6.85,3.14-10.32,9.33-10.32,6.96,0,14.35,4.88,21.98,14.49,12.66-4.62,26.48-24.22,41.07-58.24,14.71-34.31,22.18-67.12,22.18-97.53,0-14.56-2.49-27.36-7.4-38.06-13.78,18.13-29.01,44.37-45.25,78.02-16.39,33.95-27.23,57.86-32.22,71.07l-32.59,86.75c-9.86,26.18-19.63,48.92-29.03,67.59-9.39,18.64-20.24,36.36-32.27,52.67-12.03,16.3-24.69,30.62-37.65,42.54-12.99,11.95-25.77,20.88-37.97,26.55-12.24,5.68-24.19,8.57-35.53,8.57ZM277.35,279.27c-3.97,0-5.89,2.15-5.89,6.57,0,5.35,3.8,7.96,11.62,7.96,4.45,0,9.02-.78,13.57-2.31-5.35-8.1-11.84-12.21-19.3-12.21Z"/>
        <path class="st1" d="M248.41,16c22.55,0,43.31,6.04,62.28,18.13,18.97,12.08,34.25,30.57,45.82,55.45,11.34-15.87,25.96-33.77,43.87-53.68l.54,2.84c-15.76,17.3-30.02,35.08-42.79,53.33,8.59,22.06,12.89,45.42,12.89,70.09,0,30.13-5.73,56.76-17.19,79.88-11.46,23.12-28.71,40.38-51.75,51.77,7.16,12.56,10.74,33.04,10.74,61.46s-4.84,57.91-14.51,84.91-22.39,47.37-38.14,61.11c-15.76,13.74-29.97,20.61-42.62,20.61-4.78,0-8.77-2.43-12-7.28-3.22-4.85-4.84-10.72-4.84-17.59,0-21.08,8.98-45.17,26.95-72.3,17.97-27.11,35.43-42.69,52.38-46.71l.18,2.13c-18.11,5.7-35.59,21.79-52.44,48.27-16.86,26.48-25.28,49.57-25.28,69.27,0,6.89,1.37,12.06,4.11,15.5,2.74,3.44,5.78,5.16,9.12,5.16,11.44,0,24.76-10.55,39.96-31.67,15.19-21.11,27.83-46.97,37.9-77.57,10.07-30.6,15.11-55.39,15.11-74.37,0-17.32-3.04-30.61-9.13-39.86-6.09,1.9-11.94,2.85-17.55,2.85-4.3,0-7.49-1.3-9.58-3.91-2.09-2.6-3.13-5.45-3.13-8.53,0-6.63,2.98-9.95,8.95-9.95,6.92,0,14.21,4.86,21.85,14.56,12.89-4.51,26.74-24.02,41.55-58.54,14.8-34.51,22.21-67.07,22.21-97.67,0-14.94-2.57-27.87-7.7-38.78-13.97,18.25-29.19,44.45-45.67,78.57-16.48,34.13-27.22,57.83-32.23,71.1l-32.59,86.75c-9.91,26.31-19.58,48.82-29.01,67.55-9.43,18.73-20.18,36.26-32.23,52.62-12.06,16.35-24.6,30.52-37.61,42.49-13.01,11.97-25.64,20.8-37.88,26.48-12.24,5.68-24.03,8.53-35.37,8.53-17.31,0-31.07-5.63-41.28-16.88-10.21-11.24-15.31-26.11-15.31-44.58,0-7.34,1.22-13.68,3.67-19,2.45-5.33,5.4-8,8.86-8,2.98,0,5.49,1.9,7.52,5.68,2.03,3.79,3.04,8.76,3.04,14.92,0,5.68-.98,10.6-2.95,14.74-1.97,4.15-4.27,6.22-6.89,6.22-2.39,0-4.78-2.13-7.16-6.39-.72.95-1.07,2.13-1.07,3.55,0,11.13,4.42,21.49,13.25,31.09,8.83,9.59,21.91,14.39,39.22,14.39,19.82,0,38.14-7.35,54.98-22.04,16.83-14.69,32.65-35.79,47.46-63.28,14.8-27.49,35.64-71.58,62.5-132.26l17.37-39.11c30.44-68.49,63.09-127.39,97.96-176.69-8.48-20.38-22.09-37.44-40.83-51.18-18.74-13.75-40.35-20.62-64.83-20.62-32.12,0-62.89,11.44-92.32,34.32-29.43,22.88-52.92,53.88-70.47,93-17.55,39.12-26.32,78.01-26.32,116.65,0,23.01,5.16,42.33,15.49,57.98,10.33,15.65,22.12,23.47,35.37,23.47,16.59,0,35.75-9.09,57.48-27.26,21.73-18.17,39.64-40.45,53.72-66.83,14.09-26.37,21.13-52.87,21.13-79.48,0-14.26-3.37-26.08-10.12-35.46-6.75-9.38-14.66-14.08-23.73-14.08-19.58,0-40.47,15.19-62.68,45.57-22.21,30.39-40.41,69.67-54.62,117.85l-1.43-1.78c13.25-45.95,31.25-84.96,53.99-117.06,22.74-32.09,44.2-48.14,64.38-48.14,9.55,0,17.94,5.1,25.16,15.3,7.22,10.2,10.83,22.89,10.83,38.08,0,40.09-13.33,79.94-39.99,119.55-26.66,39.61-54.95,59.42-84.89,59.42-19.56,0-34.77-8.41-45.62-25.25-10.85-16.83-16.28-37.34-16.28-61.53,0-41.73,9.4-82.8,28.19-123.23,18.79-40.42,43.04-71.31,72.75-92.64,29.71-21.34,59.48-32.01,89.31-32.01M283.08,294.17c4.66,0,9.37-.83,14.15-2.49-5.49-8.52-12.12-12.79-19.88-12.79-4.18,0-6.27,2.32-6.27,6.94,0,5.56,4,8.33,12,8.33M248.41,15.25c-29.85,0-60.05,10.82-89.75,32.15-29.68,21.31-54.23,52.58-73,92.94-18.75,40.33-28.26,81.9-28.26,123.54,0,24.22,5.52,45.06,16.4,61.93,10.95,16.98,26.51,25.59,46.25,25.59,15.05,0,29.89-5.04,44.1-14.99,14.16-9.91,28.09-24.97,41.41-44.76,26.62-39.55,40.12-79.91,40.12-119.97,0-15.27-3.69-28.23-10.97-38.51-7.34-10.36-16.01-15.62-25.77-15.62-20.34,0-42.2,16.3-64.99,48.46-22.69,32.02-40.89,71.48-54.1,117.28l-.11.38.24.3,1.43,1.78.9,1.11.4-1.37c14.11-47.87,32.45-87.44,54.51-117.62,21.95-30.04,42.84-45.27,62.07-45.27,8.77,0,16.55,4.63,23.12,13.77,6.62,9.21,9.98,21,9.98,35.02,0,26.36-7.08,52.98-21.04,79.12-13.98,26.17-31.99,48.58-53.54,66.61-21.49,17.97-40.67,27.09-57,27.09-12.93,0-24.61-7.78-34.74-23.13-10.2-15.45-15.37-34.82-15.37-57.56,0-38.36,8.83-77.5,26.26-116.35,17.42-38.83,41.05-70.02,70.24-92.72,29.16-22.67,60.06-34.16,91.86-34.16,24.2,0,45.86,6.89,64.38,20.47,18.43,13.51,32.02,30.5,40.42,50.49-34.64,49.05-67.54,108.43-97.79,176.48l-17.37,39.11c-26.73,60.38-47.75,104.86-62.47,132.21-14.69,27.29-30.61,48.51-47.29,63.07-16.61,14.5-34.95,21.86-54.48,21.86-17.01,0-30.02-4.76-38.67-14.14-8.66-9.41-13.05-19.7-13.05-30.58,0-.77.11-1.45.34-2.04,2.33,3.79,4.68,5.64,7.15,5.64,2.93,0,5.48-2.24,7.57-6.65,2.01-4.22,3.03-9.29,3.03-15.06,0-6.25-1.05-11.39-3.13-15.27-2.16-4.03-4.92-6.08-8.18-6.08-3.77,0-6.98,2.84-9.55,8.43-2.48,5.4-3.74,11.9-3.74,19.32,0,18.59,5.22,33.76,15.51,45.09,10.31,11.36,24.39,17.12,41.83,17.12,11.39,0,23.4-2.89,35.68-8.6,12.24-5.69,25.05-14.64,38.07-26.61,12.98-11.94,25.66-26.27,37.7-42.59,12.04-16.33,22.9-34.07,32.3-52.73,9.4-18.67,19.18-41.43,29.04-67.62l32.59-86.75c4.99-13.2,15.82-37.1,32.21-71.04,16.08-33.32,31.16-59.36,44.83-77.45,4.72,10.54,7.11,23.09,7.11,37.33,0,30.35-7.45,63.12-22.15,97.38-14.45,33.7-28.11,53.19-40.61,57.94-7.64-9.57-15.07-14.42-22.1-14.42-6.35,0-9.7,3.7-9.7,10.7,0,3.24,1.11,6.27,3.3,9,2.22,2.78,5.64,4.19,10.17,4.19,5.49,0,11.29-.91,17.23-2.71,5.78,9.07,8.7,22.18,8.7,38.97,0,18.81-5.07,43.75-15.07,74.14-10,30.39-22.72,56.42-37.8,77.37-14.98,20.81-28.21,31.36-39.35,31.36-3.08,0-5.95-1.64-8.53-4.88-2.62-3.28-3.95-8.34-3.95-15.03,0-19.47,8.47-42.64,25.16-68.87,16.67-26.2,34.18-42.33,52.03-47.95l.57-.18-.05-.6-.18-2.13-.07-.87-.85.2c-17.06,4.06-34.84,19.88-52.83,47.03-17.97,27.12-27.08,51.59-27.08,72.71,0,6.99,1.67,13.05,4.96,18,3.36,5.05,7.61,7.62,12.62,7.62,12.78,0,27.29-6.99,43.11-20.79,15.78-13.75,28.69-34.42,38.36-61.42,9.65-26.96,14.55-55.61,14.55-85.17,0-27.9-3.52-48.47-10.46-61.14,22.74-11.42,40.02-28.82,51.39-51.76,11.46-23.12,17.27-50.11,17.27-80.22,0-24.51-4.3-48.05-12.79-69.99,12.63-18.02,26.93-35.83,42.5-52.92l.25-.28-.07-.37-.54-2.84-.28-1.49-1.01,1.13c-17.44,19.39-31.96,37.12-43.17,52.71-11.52-24.32-26.84-42.69-45.55-54.6-19.01-12.11-40.1-18.25-62.69-18.25h0ZM283.08,293.42c-7.57,0-11.25-2.48-11.25-7.58,0-4.23,1.75-6.19,5.52-6.19,7.2,0,13.5,3.91,18.72,11.64-4.36,1.42-8.73,2.14-12.98,2.14h0Z"/>
      </g>
      <g>
        <path class="st0" d="M797.29,459.33c-3.19,0-5.94-2.16-8.17-6.43-2.19-4.18-3.3-9.16-3.3-14.8,0-14.48,5.94-32.19,17.66-52.62l35.8-61.19-.24-.29-56.42,75.22c-4.38,6.82-8.99,10.29-13.69,10.29-3.73,0-6.92-2.12-9.51-6.3-8.58,14.79-17.86,27.39-27.58,37.47-9.89,10.26-18.28,15.47-24.94,15.47-3.54,0-6.55-2.11-8.96-6.27-2.37-4.09-3.58-9.81-3.58-16.99,0-7.98,1.08-15.94,3.22-23.69-21.73,30.39-38.27,45.79-49.18,45.79-2.72,0-5.08-1.77-7.02-5.27-1.9-3.42-2.87-7.74-2.87-12.81s.75-9.88,2.22-14.92c1.47-5.04,3.14-9.36,4.96-12.85,1.82-3.48,6.24-10.14,13.15-19.8l8.11-11.32c9.07-12.66,13.67-21.58,13.67-26.51s-2.18-7.47-6.67-7.47c-8.52,0-20.63,10.16-35.98,30.21-15.42,20.13-33.6,46.66-54.05,78.83l-.11.17h-18.36l48.98-80.15c7.56-12.46,11.4-20.71,11.4-24.5,0-4.05-1.49-6.01-4.56-6.01-9.11,0-27.56,19.05-54.85,56.62-18.79,26.17-31.43,42.61-37.55,48.86-6.29,6.41-10.94,9.53-14.23,9.53-2.96,0-5.29-1.78-6.93-5.29-1.6-3.41-2.41-7.51-2.41-12.18,0-8.08,2.4-18.29,7.13-30.35l-.26-.32c-23.97,32.39-39.93,48.14-48.79,48.14-3.79,0-6.78-2.56-8.89-7.62-2.06-4.94-3.11-11.47-3.11-19.41,0-7.32,1.06-14.58,3.16-21.62l-6.71,9.29c-7.03,9.77-14.69,18.61-22.77,26.28-8.14,7.72-14.57,11.63-19.11,11.63-3.2,0-5.77-2.07-7.65-6.14-1.83-3.97-2.77-9.13-2.77-15.33,0-6.96,1.38-13.47,4.09-19.37,2.7-5.86,8.67-15.27,17.74-27.94,9.05-12.63,14.67-21.08,16.71-25.09,2.02-3.98,3.04-7.61,3.04-10.81,0-2.78-.71-5.09-2.12-6.84-1.39-1.73-2.93-2.61-4.56-2.61-2.38,0-6.52,2.12-12.31,6.3-5.84,4.22-14.13,12.63-24.65,25-10.51,12.35-21.07,26.86-31.39,43.12-10.29,16.22-18.43,28.55-24.19,36.66l-.11.16h-18.09l72.97-128.41-.51-.86c-10.69,10.2-30.89,35.51-60.06,75.24l-.33.45-1.65-2.72,17-23.09c9.08-12.48,20.04-26.04,32.59-40.29,12.44-14.12,18.89-21.51,19.19-21.97l48.71-81.69c9.49-15.96,18.91-30.59,27.99-43.48,9.09-12.9,18.16-23.98,26.95-32.93,8.81-8.96,15.7-14.79,20.48-17.31,4.8-2.53,8.63-3.81,11.39-3.81,7.39,0,11.14,5.78,11.14,17.18,0,14.88-10.24,36.11-30.42,63.09-20.15,26.94-46.59,52.79-78.58,76.84-13.42,10.16-21.11,16.85-22.84,19.88l-18.84,34.4c-12.7,23.16-25.74,48.14-38.76,74.27l.96.52c12.84-20.04,26.63-38.57,40.97-55.08,14.68-16.91,25.29-25.12,32.41-25.12,7.63,0,11.49,6.35,11.49,18.88,0,7.71-1.16,15.28-3.45,22.5-2.29,7.23-7.44,16.45-15.29,27.41l-10.75,15.03c-7.67,10.67-11.56,18.57-11.56,23.47,0,4.61,1.61,6.85,4.91,6.85,10.14,0,27.77-17.92,52.4-53.27,4.67-10.49,11.93-20.77,21.54-30.48,18.8-19.01,34.9-28.65,47.83-28.65,6.9,0,10.4,4.8,10.4,14.28,0,1.78-.05,4-.16,6.61l12.33-21.18h16.48l-49.76,85.44c-4.81,8.13-7.25,14.73-7.25,19.61,0,3.15.65,5.53,1.94,7.08,1.27,1.53,2.57,2.3,3.85,2.3,2.7,0,7.17-3.4,13.29-10.11,6.19-6.78,18.27-22.72,35.92-47.38,28.06-38.51,46.66-57.23,56.86-57.23,2.47,0,4.62,1.35,6.39,4.01,1.74,2.62,2.62,6.18,2.62,10.58,0,12.78-5.02,27.97-14.92,45.16l.29.48c27.76-39.95,46.48-59.36,57.24-59.36,8.2,0,12.36,5.69,12.36,16.92,0,7.56-1.64,15.43-4.87,23.38-3.23,7.94-9.2,18.03-17.75,30-8.52,11.93-13.88,19.88-15.92,23.64-2.02,3.7-3.04,6.92-3.04,9.55,0,2.05.54,3.83,1.6,5.3,1.04,1.44,2.21,2.17,3.48,2.17,3.54,0,9.15-3.14,16.68-9.33,7.57-6.21,16.2-16.08,25.66-29.33l9.73-13.54c1.84-4.61,4.15-9.29,6.81-13.81,8.91-15.13,19.29-27.06,30.85-35.46,11.58-8.41,20.93-12.67,27.79-12.67s10.42,5.39,10.42,16.02-5.32,26.49-15.81,46.64c2.03,3.98,4.73,6,8.04,6,3.84,0,7.77-3.06,11.67-9.1l48.28-65,20.07-25.97h-15.48l.88-3.65h17.79l29.86-51.27,15.94-.61-28.56,51.88h25.09l-.67,3.65h-27.02l-60.56,106.2c-7.24,12.66-11.64,20.72-13.08,23.96-1.44,3.21-2.16,6.27-2.16,9.1s.72,5.22,2.13,7.17c1.39,1.91,2.85,2.88,4.36,2.88,9.46,0,27.97-19.63,55.02-58.36l.33-.47,1.66,2.73-.14.2c-28.65,40.46-47.37,60.12-57.22,60.12ZM527.2,343.75c-9.55,0-23.85,13.99-42.5,41.59-18.68,27.64-28.15,47.35-28.15,58.59,0,2.43.63,4.75,1.88,6.89,1.23,2.11,2.9,3.14,5.13,3.14,3.29,0,8.85-3.56,16.54-10.59,7.73-7.07,17.39-18.71,28.69-34.61,11.3-15.89,18.56-27.58,21.58-34.75,3.02-7.15,4.54-13.95,4.54-20.22,0-6.75-2.52-10.03-7.71-10.03ZM766.47,340.27c-8.72,0-22.19,14.75-40.03,43.85-17.87,29.16-26.93,48.69-26.93,58.03,0,2.61.8,5.02,2.39,7.17,1.56,2.11,3.35,3.18,5.32,3.18,4.8,0,11.84-4.21,20.93-12.5,9.13-8.34,17.27-18.64,24.19-30.62,6.93-11.99,12.39-22.89,16.24-32.4,3.83-9.48,5.77-17.77,5.77-24.63,0-3.57-.83-6.52-2.48-8.76-1.62-2.21-3.44-3.32-5.41-3.32ZM534.74,136.91c-7.04,0-16.03,6.1-26.73,18.12-10.75,12.08-28.02,38.43-51.33,78.3-26.39,45.15-33.8,59.23-34.92,62.45,1.59-1.04,7.12-5.04,22.54-16.73,9.11-7.09,18.43-15.08,27.69-23.73,14.16-13.44,26.21-26.44,35.8-38.63,9.59-12.18,17.59-24.49,23.79-36.58,4.79-9.2,7.92-17.07,9.32-23.37.7-2.87,1.05-5.57,1.05-8.03,0-7.93-2.36-11.79-7.21-11.79Z"/>
        <path class="st1" d="M534.39,132.77c7.17,0,10.76,5.6,10.76,16.8,0,14.87-10.12,35.83-30.35,62.86-20.23,27.04-46.4,52.63-78.51,76.77-13.53,10.24-21.17,16.9-22.94,19.99l-18.85,34.41c-12.8,23.33-25.77,48.2-38.93,74.6l1.59.86c12.94-20.22,26.65-38.67,41.13-55.33,14.47-16.66,25.18-24.99,32.13-24.99,7.41,0,11.12,6.17,11.12,18.5,0,7.7-1.15,15.17-3.44,22.39s-7.37,16.33-15.24,27.3l-10.75,15.03c-7.75,10.79-11.63,18.69-11.63,23.69s1.76,7.22,5.29,7.22c10.33,0,27.91-17.84,52.71-53.43,4.7-10.54,11.86-20.68,21.5-30.43,18.82-19.02,34.67-28.54,47.56-28.54,6.68,0,10.02,4.64,10.02,13.91,0,2.13-.08,4.83-.23,8.11l12.99-22.31h15.61l-49.43,84.88c-4.87,8.23-7.3,14.83-7.3,19.79,0,3.25.67,5.69,2.03,7.32,1.35,1.62,2.73,2.43,4.14,2.43,2.82,0,7.34-3.41,13.57-10.23,6.22-6.82,18.21-22.63,35.94-47.42,27.72-38.04,46.57-57.07,56.56-57.07,2.35,0,4.37,1.28,6.08,3.84,1.7,2.56,2.55,6.02,2.55,10.38,0,12.82-4.99,27.88-14.98,45.17l.7,1.16c27.6-39.78,46.69-59.68,57.26-59.68,7.99,0,11.98,5.52,11.98,16.55,0,7.55-1.62,15.3-4.85,23.24-3.23,7.94-9.13,17.92-17.71,29.92-8.58,12.01-13.89,19.9-15.95,23.67-2.06,3.78-3.08,7.02-3.08,9.73,0,2.13.56,3.98,1.67,5.52,1.12,1.55,2.38,2.32,3.79,2.32,3.64,0,9.28-3.14,16.91-9.42,7.63-6.27,16.21-16.08,25.72-29.4l9.73-13.54c1.88-4.67,4.15-9.28,6.83-13.84,8.93-15.16,19.17-26.94,30.75-35.34,11.57-8.4,20.76-12.6,27.57-12.6s10.04,5.21,10.04,15.64-5.29,26.36-15.86,46.64c2.11,4.25,4.93,6.37,8.46,6.37,3.99,0,7.99-3.09,11.98-9.27l48.27-64.98,20.53-26.57h-15.77l.7-2.9h17.71l29.86-51.28,15.07-.58-28.55,51.85h25.28l-.53,2.9h-26.93l-60.67,106.39c-7.27,12.72-11.64,20.71-13.1,23.99-1.47,3.28-2.2,6.36-2.2,9.25s.73,5.36,2.2,7.39c1.47,2.02,3.02,3.04,4.67,3.04,9.63,0,28.07-19.5,55.33-58.52l1.23,2.03c-28.31,39.98-47.28,59.97-56.91,59.97-3.06,0-5.67-2.08-7.84-6.23-2.18-4.15-3.26-9.02-3.26-14.63,0-14.48,5.87-31.96,17.61-52.43l35.93-61.41-.7-.87-56.71,75.61c-4.35,6.76-8.81,10.14-13.39,10.14-3.76,0-6.93-2.22-9.51-6.66-8.69,15.06-17.97,27.72-27.84,37.95-9.87,10.24-18.09,15.35-24.67,15.35-3.41,0-6.29-2.03-8.63-6.08-2.35-4.06-3.52-9.66-3.52-16.8,0-8.74,1.28-17.31,3.81-25.7-22.37,31.59-39.09,47.43-50.15,47.43-2.58,0-4.82-1.7-6.7-5.08-1.88-3.38-2.82-7.6-2.82-12.63s.73-9.78,2.2-14.81c1.47-5.03,3.11-9.3,4.93-12.78,1.82-3.48,6.19-10.07,13.13-19.75l8.11-11.32c9.16-12.78,13.74-21.69,13.74-26.72s-2.35-7.84-7.05-7.84c-8.69,0-20.78,10.12-36.28,30.36-15.5,20.24-33.52,46.52-54.07,78.86h-17.48l48.63-79.58c7.63-12.58,11.45-20.82,11.45-24.69,0-4.26-1.65-6.39-4.93-6.39-9.28,0-27.66,18.93-55.15,56.78-18.86,26.27-31.36,42.54-37.51,48.81-6.15,6.27-10.8,9.41-13.96,9.41-2.81,0-5.01-1.69-6.59-5.07-1.58-3.37-2.37-7.39-2.37-12.02,0-8.11,2.4-18.25,7.19-30.42l-.7-.87c-23.83,32.25-40.09,48.38-48.78,48.38-3.64,0-6.49-2.46-8.54-7.39-2.05-4.92-3.08-11.34-3.08-19.26s1.29-16.02,3.84-23.72l-8.07,11.17c-7.05,9.8-14.62,18.54-22.73,26.23-8.11,7.69-14.39,11.53-18.85,11.53-3.06,0-5.49-1.98-7.31-5.93-1.82-3.95-2.73-9.01-2.73-15.18,0-6.93,1.35-13.34,4.05-19.22,2.7-5.87,8.6-15.17,17.71-27.88,9.1-12.71,14.68-21.09,16.74-25.14,2.05-4.04,3.08-7.7,3.08-10.98,0-2.89-.74-5.25-2.21-7.08-1.47-1.83-3.09-2.75-4.85-2.75-2.47,0-6.65,2.13-12.53,6.37-5.89,4.25-14.12,12.6-24.71,25.06-10.59,12.45-21.07,26.85-31.42,43.16-10.36,16.33-18.42,28.54-24.18,36.65h-17.26l72.76-128.04-.86-1.45c-10.66,10.04-30.81,35.25-60.45,75.61l-1.23-2.03,16.85-22.89c9.13-12.55,19.99-25.97,32.57-40.27,12.58-14.29,18.99-21.63,19.23-22.02l48.71-81.69c9.53-16.03,18.86-30.51,27.97-43.45,9.12-12.94,18.09-23.9,26.91-32.88,8.82-8.98,15.62-14.72,20.38-17.24,4.77-2.51,8.5-3.77,11.21-3.77M421.25,296.46c.48,0,8.24-5.71,23.28-17.11,9.18-7.14,18.42-15.06,27.72-23.75,14.24-13.52,26.18-26.41,35.84-38.68,9.65-12.26,17.6-24.48,23.83-36.64,4.82-9.27,7.94-17.09,9.36-23.46.7-2.9,1.06-5.6,1.06-8.11,0-8.11-2.53-12.17-7.59-12.17-7.18,0-16.19,6.08-27.01,18.25-10.83,12.17-27.95,38.29-51.37,78.36-23.42,40.08-35.13,61.18-35.13,63.3,0,.01,0,.02.02.02M707.23,452.88c4.92,0,11.98-4.2,21.18-12.6,9.2-8.4,17.29-18.64,24.26-30.71,6.97-12.07,12.39-22.89,16.26-32.45,3.87-9.56,5.8-17.82,5.8-24.77,0-3.67-.85-6.66-2.55-8.98-1.7-2.32-3.6-3.48-5.71-3.48-8.91,0-22.35,14.68-40.34,44.03-17.99,29.36-26.98,48.77-26.98,58.23,0,2.71.82,5.17,2.46,7.39,1.64,2.22,3.52,3.33,5.62,3.33M463.55,454.32c3.4,0,8.99-3.56,16.79-10.69,7.79-7.12,17.37-18.68,28.74-34.67,11.37-15.99,18.57-27.59,21.62-34.82,3.05-7.22,4.57-14.01,4.57-20.37,0-6.93-2.7-10.4-8.09-10.4-9.73,0-24,13.92-42.81,41.75-18.81,27.84-28.22,47.44-28.22,58.8,0,2.51.64,4.87,1.93,7.08,1.29,2.21,3.11,3.32,5.45,3.32M534.39,132.02c-2.85,0-6.63,1.26-11.56,3.85-4.82,2.54-11.74,8.38-20.57,17.37-8.8,8.96-17.89,20.05-26.99,32.97-9.09,12.9-18.51,27.54-28.01,43.5l-48.71,81.69c-.25.35-3.79,4.46-19.15,21.9-12.56,14.27-23.53,27.83-32.61,40.32l-16.85,22.88-.3.4.26.43,1.23,2.03.58.96.66-.9c28.85-39.3,48.92-64.47,59.68-74.86l.16.26-72.54,127.66-.64,1.12h18.93l.22-.32c5.77-8.11,13.91-20.45,24.21-36.68,10.31-16.24,20.86-30.73,31.36-43.08,10.5-12.35,18.77-20.74,24.58-24.94,5.73-4.13,9.8-6.23,12.09-6.23,1.54,0,2.93.81,4.27,2.47,1.36,1.69,2.04,3.91,2.04,6.61,0,3.14-1.01,6.72-3,10.64-2.03,3.99-7.64,12.42-16.68,25.04-9.09,12.69-15.07,22.12-17.78,28-2.73,5.95-4.12,12.52-4.12,19.53,0,6.26.94,11.47,2.8,15.49,1.95,4.22,4.63,6.36,7.99,6.36,4.71,0,11.04-3.84,19.37-11.73,8.1-7.68,15.78-16.54,22.82-26.33l5.47-7.57c-1.73,6.43-2.6,13.03-2.6,19.68,0,7.98,1.06,14.56,3.14,19.55,2.17,5.21,5.28,7.85,9.23,7.85,8.88,0,24.67-15.42,48.24-47.15-4.45,11.6-6.7,21.45-6.7,29.3,0,4.73.82,8.88,2.44,12.34,1.71,3.65,4.15,5.5,7.27,5.5,3.4,0,8.14-3.15,14.5-9.64,6.14-6.26,18.78-22.71,37.59-48.9,27.21-37.47,45.56-56.47,54.54-56.47,1.8,0,4.18.58,4.18,5.64,0,3.72-3.82,11.9-11.34,24.3l-48.63,79.58-.7,1.14h19.23l.22-.35c20.44-32.17,38.62-58.68,54.03-78.8,15.28-19.95,27.29-30.06,35.69-30.06,4.3,0,6.3,2.25,6.3,7.09s-4.58,13.69-13.6,26.29l-8.11,11.32c-6.92,9.67-11.36,16.35-13.18,19.84-1.84,3.51-3.51,7.86-4.99,12.92-1.48,5.07-2.23,10.13-2.23,15.02,0,5.14.98,9.52,2.91,13,2.01,3.63,4.49,5.46,7.35,5.46,11,0,26.81-14.5,48.3-44.29-1.8,7.16-2.71,14.48-2.71,21.82s1.22,13.03,3.63,17.18c2.48,4.28,5.6,6.46,9.28,6.46,6.76,0,15.24-5.24,25.21-15.58,9.62-9.98,18.81-22.43,27.32-37.01,2.6,3.95,5.79,5.95,9.49,5.95,4.83,0,9.54-3.52,14.01-10.46l54.33-72.44-34.11,58.31c-11.75,20.5-17.71,38.26-17.71,52.81,0,5.71,1.13,10.74,3.35,14.98,2.3,4.4,5.16,6.63,8.5,6.63,9.98,0,28.8-19.72,57.52-60.28l.28-.4-.26-.42-1.23-2.03-.6-.98-.66.94c-26.98,38.62-45.38,58.2-54.71,58.2-1.38,0-2.75-.92-4.06-2.73-1.37-1.89-2.06-4.23-2.06-6.95s.72-5.78,2.13-8.95c1.44-3.22,5.84-11.27,13.07-23.93l60.45-106.01h27.12l.11-.61.53-2.9.16-.89h-24.91l27.93-50.74.64-1.16-1.33.05-15.07.58-.41.02-.21.36-29.65,50.9h-17.87l-.14.57-.7,2.9-.22.93h15.19l-19.6,25.36-48.28,64.99c-3.86,5.96-7.67,8.97-11.38,8.97-3.15,0-5.65-1.84-7.61-5.62,10.46-20.13,15.76-35.82,15.76-46.64s-3.63-16.39-10.79-16.39-16.37,4.29-28.01,12.74c-11.6,8.42-22.01,20.39-30.95,35.57-2.65,4.51-4.96,9.17-6.84,13.85l-9.68,13.47c-9.44,13.22-18.05,23.07-25.59,29.26-7.46,6.14-12.99,9.25-16.44,9.25-1.17,0-2.21-.66-3.18-2.01-1.02-1.41-1.53-3.12-1.53-5.08,0-2.57,1.01-5.72,2.99-9.37,2.04-3.74,7.38-11.68,15.9-23.6,8.56-11.98,14.55-22.1,17.79-30.07,3.25-8,4.9-15.91,4.9-23.52,0-11.48-4.28-17.3-12.73-17.3-10.68,0-29,18.73-55.95,57.23,9.1-16.34,13.71-30.83,13.71-43.13,0-4.48-.9-8.11-2.68-10.79-1.84-2.77-4.1-4.18-6.7-4.18-10.33,0-29.03,18.77-57.17,57.38-17.64,24.65-29.71,40.58-35.89,47.35-7.53,8.25-11.23,9.99-13.01,9.99-1.17,0-2.37-.73-3.56-2.16-1.23-1.48-1.85-3.78-1.85-6.84,0-4.81,2.42-11.34,7.2-19.41l49.44-84.88.66-1.13h-17.35l-.22.37-11.47,19.69c.07-1.97.11-3.68.11-5.12,0-9.72-3.62-14.66-10.77-14.66-13.04,0-29.22,9.68-48.1,28.76-9.62,9.73-16.89,20.02-21.62,30.59-24.53,35.2-42.05,53.05-52.05,53.05-1.95,0-4.54-.67-4.54-6.47,0-4.82,3.87-12.65,11.49-23.25l10.75-15.03c7.88-10.99,13.04-20.25,15.35-27.51,2.3-7.26,3.47-14.87,3.47-22.62,0-12.77-3.99-19.25-11.87-19.25-7.24,0-17.93,8.26-32.69,25.25-14.29,16.45-28.02,34.89-40.82,54.83l-.34-.18c12.97-26.02,25.95-50.89,38.59-73.93l18.85-34.41c1.7-2.97,9.35-9.62,22.73-19.75,32.02-24.07,58.48-49.95,78.66-76.92,20.24-27.05,30.5-48.35,30.5-63.31,0-11.65-3.87-17.55-11.51-17.55h0ZM422.56,294.77c2.07-4.71,10.29-19.92,34.44-61.25,23.29-39.85,40.55-66.18,51.29-78.24,10.63-11.94,19.53-18,26.45-18,4.6,0,6.84,3.73,6.84,11.42,0,2.43-.35,5.1-1.04,7.93-1.4,6.29-4.52,14.12-9.29,23.3-6.19,12.08-14.18,24.37-23.76,36.53-9.58,12.17-21.61,25.16-35.76,38.6-9.24,8.64-18.55,16.62-27.66,23.71-13.11,9.94-19.03,14.3-21.51,16.01h0ZM707.23,452.13c-1.88,0-3.52-.99-5.02-3.02-1.54-2.08-2.32-4.41-2.32-6.94,0-9.28,9.04-28.73,26.87-57.84,17.76-28.98,31.12-43.67,39.71-43.67,1.87,0,3.54,1.04,5.11,3.17,1.59,2.17,2.4,5.05,2.4,8.54,0,6.82-1.93,15.05-5.75,24.49-3.84,9.49-9.29,20.37-16.21,32.35-6.9,11.94-15.01,22.21-24.12,30.53-9.02,8.23-15.98,12.4-20.68,12.4h0ZM463.55,453.57c-2.08,0-3.65-.96-4.8-2.95-1.21-2.09-1.83-4.34-1.83-6.7,0-11.16,9.45-30.8,28.09-58.38,18.58-27.49,32.77-41.42,42.19-41.42,4.94,0,7.34,3.16,7.34,9.65s-1.52,12.97-4.51,20.07c-3.01,7.14-10.26,18.81-21.54,34.67-11.29,15.88-20.93,27.5-28.64,34.55-7.61,6.97-13.09,10.5-16.28,10.5h0Z"/>
      </g>
    </g>
    <g class="st3">
      <g>
        <path class="st1" d="M102.58,44.39h82v36.87h-20.5v294.95h-20.5v36.87H61.58v-36.87h-20.5v-110.61h41v110.61h41V81.26h-20.5v-36.87Z"/>
        <path class="st1" d="M267.96,293.83h-11.34v-37.39h-11.34v18.69h-11.34v18.69h-22.67v-18.69h-11.34v-74.77h-11.34v-18.69h11.34v-18.69h11.34v-18.69h11.34v112.16h22.67v-18.69h11.34v-74.77h11.34v-18.69h11.34v112.16h11.34v18.69h-11.34v18.69h-11.34Z"/>
        <path class="st1" d="M332.26,349.91h-11.34v-130.85h-11.34v-18.69h11.34v-18.69h11.34v-18.69h11.34v74.77h11.34v18.69h11.34v18.69h11.34v18.69h-22.67v-18.69h-11.34v37.39h11.34v18.69h-11.34v18.69h-11.34ZM377.6,275.14v-74.77h-11.34v-18.69h-11.34v-18.69h-11.34v-18.69h34.01v18.69h11.34v18.69h11.34v74.77h-11.34v18.69h-11.34Z"/>
        <path class="st1" d="M441.9,293.83h-11.34v-74.77h-11.34v-18.69h11.34v-18.69h11.34v-18.69h11.34v93.47h11.34v18.69h-11.34v18.69h-11.34ZM430.57,144.28v-37.39h11.34v-18.69h11.34v37.39h-11.34v18.69h-11.34Z"/>
        <path class="st1" d="M506.2,293.83h-11.34v-112.16h-11.34v-18.69h11.34v-18.69h-11.34v-18.69h11.34v-18.69h11.34v-18.69h11.34v74.77h22.67v18.69h-22.67v74.77h11.34v18.69h-11.34v18.69h-11.34ZM528.88,256.44v-18.69h11.34v18.69h-11.34Z"/>
        <path class="st1" d="M615.85,275.14h11.34v18.69h-56.68v-18.69h-11.34v-93.47h11.34v-18.69h11.34v74.77h11.34v37.39h22.67ZM615.85,200.36v-18.69h-11.34v-18.69h-22.67v-18.69h45.34v18.69h11.34v18.69h-11.34v18.69h-11.34ZM593.17,237.75v-18.69h11.34v18.69h-11.34ZM604.51,219.06v-18.69h11.34v18.69h-11.34ZM627.18,275.14v-18.69h11.34v18.69h-11.34Z"/>
        <path class="st1" d="M680.15,293.83h-11.34v-93.47h-11.34v-18.69h11.34v-18.69h11.34v-18.69h11.34v37.39h11.34v18.69h-11.34v56.08h11.34v18.69h-11.34v18.69h-11.34ZM725.49,200.36h-11.34v-18.69h-11.34v-18.69h11.34v-18.69h11.34v18.69h11.34v37.39h-11.34Z"/>
      </g>
    </g>
  </g>
  <g>
    <path class="st0" d="M796.32,343.13l-5.59-89.29c-.51-8.21-6.55-14.87-14.67-16.19l-123.62-20.04.08-.74,96.87,5.41c.35.02.7.03,1.04.03,6.49,0,12.23-3.44,15.34-9.19,3.1-5.74,2.82-12.43-.76-17.9l-53.12-81.19.6-.44,79.16,97.04c3.34,4.09,8.29,6.44,13.57,6.44,2.72,0,5.34-.62,7.78-1.83l80.12-39.81.39.63-57.33,43.85c-4.61,3.53-7.11,8.88-6.85,14.68s3.22,10.91,8.12,14.02l108.24,68.55-.37.65-113.49-59.47c-2.55-1.34-5.28-2.02-8.11-2.02-8.78,0-16.25,6.56-17.38,15.27l-9.31,71.57-.75-.03Z"/>
    <path class="st1" d="M712.21,113.82l79.16,97.04c3.49,4.27,8.62,6.58,13.86,6.58,2.69,0,5.41-.61,7.95-1.87l80.12-39.81-57.33,43.85c-9.88,7.56-9.22,22.65,1.3,29.31l108.24,68.55-113.49-59.46c-2.69-1.41-5.52-2.06-8.28-2.06-8.58,0-16.54,6.26-17.75,15.59l-9.31,71.57-5.59-89.29c-.52-8.33-6.74-15.2-14.99-16.53l-123.62-20.04,96.87,5.41c.36.02.71.03,1.06.03,14.03,0,22.73-15.7,14.9-27.67l-53.12-81.19M712.79,113.35l-1.21.88,53.12,81.19c3.5,5.35,3.78,11.9.74,17.52-3.05,5.63-8.66,9-15.01,9-.34,0-.68,0-1.02-.03l-96.87-5.41-.16,1.49,123.62,20.04c7.95,1.29,13.85,7.8,14.36,15.84l5.59,89.29,1.49.05,9.31-71.57c1.11-8.52,8.42-14.94,17.01-14.94,2.77,0,5.43.66,7.93,1.97l113.49,59.46.75-1.3-108.24-68.55c-4.8-3.04-7.7-8.04-7.95-13.72-.25-5.68,2.19-10.91,6.71-14.37l57.33-43.85-.79-1.27-80.12,39.81c-2.39,1.19-4.95,1.79-7.61,1.79-5.17,0-10.02-2.3-13.28-6.3l-79.16-97.04h0Z"/>
  </g>
</svg>